<svg width="206" height="48" viewBox="0 0 206 48" fill="none" xmlns="http://www.w3.org/2000/svg">
<g clip-path="url(#clip0)">
<path d="M48.03 24.08C44 31.04 39.97 38.0001 35.97 44.9001C27.93 44.9001 19.95 44.9001 11.95 44.9001C7.95 37.8701 3.98 30.89 0 23.89C4.03 16.92 8.06 9.96005 12.05 3.05005C20.09 3.05005 28.07 3.05005 36.09 3.05005C40.08 10.08 44.05 17.07 48.03 24.08ZM46.76 24.08C42.98 17.43 39.23 10.84 35.45 4.19005C27.89 4.19005 20.32 4.19005 12.69 4.19005C8.9 10.72 5.09 17.31 1.27 23.9C5.04 30.54 8.8 37.1601 12.58 43.8101C20.18 43.8101 27.72 43.8101 35.34 43.8101C39.13 37.2801 42.93 30.69 46.76 24.08Z" fill="url(#paint0_linear)"/>
<path d="M3.07001 11.94C10.12 7.94 17.1 3.98 24.11 0C31.07 4.03 38.03 8.06 44.95 12.07C44.95 20.07 44.95 28.06 44.95 36.06C37.93 40.05 30.95 44.01 23.92 48C16.98 43.99 10.01 39.97 3.07001 35.96C3.07001 27.95 3.07001 19.98 3.07001 11.94Z" fill="url(#paint1_linear)"/>
<path d="M76.04 29.916C75.296 31.956 74.072 33.54 72.368 34.668C70.664 35.796 68.696 36.36 66.464 36.36C64.208 36.36 62.252 35.868 60.596 34.884C58.964 33.876 57.692 32.46 56.78 30.636C55.892 28.812 55.448 26.64 55.448 24.12C55.448 21.6 55.892 19.428 56.78 17.604C57.692 15.78 58.964 14.376 60.596 13.392C62.252 12.384 64.184 11.88 66.392 11.88C68.696 11.88 70.616 12.36 72.152 13.32C73.712 14.256 74.864 15.624 75.608 17.424L72.764 18.756C72.236 17.388 71.468 16.356 70.46 15.66C69.476 14.94 68.192 14.58 66.608 14.58C65 14.58 63.584 14.964 62.36 15.732C61.136 16.476 60.176 17.556 59.48 18.972C58.808 20.388 58.472 22.104 58.472 24.12C58.472 27.096 59.18 29.436 60.596 31.14C62.036 32.82 63.992 33.66 66.464 33.66C68.048 33.66 69.428 33.264 70.604 32.472C71.78 31.656 72.632 30.444 73.16 28.836L76.04 29.916ZM82.1077 36V9.72H84.9877V20.7C85.6117 19.62 86.4397 18.84 87.4717 18.36C88.5037 17.88 89.6317 17.64 90.8557 17.64C92.1517 17.64 93.3277 17.892 94.3837 18.396C95.4397 18.876 96.2797 19.62 96.9037 20.628C97.5517 21.636 97.8757 22.92 97.8757 24.48V36H94.9957V25.488C94.9957 23.496 94.5637 22.116 93.6997 21.348C92.8597 20.556 91.8157 20.16 90.5677 20.16C89.7037 20.16 88.8397 20.364 87.9757 20.772C87.1117 21.18 86.3917 21.852 85.8157 22.788C85.2637 23.7 84.9877 24.924 84.9877 26.46V36H82.1077ZM115.989 24.372C115.989 23.028 115.629 21.996 114.909 21.276C114.189 20.532 113.169 20.16 111.849 20.16C110.601 20.16 109.545 20.436 108.681 20.988C107.817 21.516 107.181 22.38 106.773 23.58L104.433 22.14C104.913 20.796 105.801 19.716 107.097 18.9C108.393 18.06 110.001 17.64 111.921 17.64C113.217 17.64 114.393 17.868 115.449 18.324C116.505 18.756 117.333 19.428 117.933 20.34C118.557 21.228 118.869 22.38 118.869 23.796V32.508C118.869 33.372 119.325 33.804 120.237 33.804C120.693 33.804 121.137 33.744 121.569 33.624L121.425 35.892C120.945 36.132 120.321 36.252 119.553 36.252C118.665 36.252 117.897 36.036 117.249 35.604C116.625 35.172 116.217 34.512 116.025 33.624C115.401 34.56 114.549 35.256 113.469 35.712C112.389 36.144 111.321 36.36 110.265 36.36C109.209 36.36 108.225 36.18 107.313 35.82C106.401 35.46 105.669 34.92 105.117 34.2C104.589 33.456 104.325 32.544 104.325 31.464C104.325 30.12 104.769 29.016 105.657 28.152C106.569 27.264 107.829 26.664 109.437 26.352L115.989 25.056V24.372ZM107.277 31.32C107.277 32.064 107.565 32.676 108.141 33.156C108.741 33.612 109.581 33.84 110.661 33.84C111.597 33.84 112.461 33.684 113.253 33.372C114.069 33.036 114.729 32.544 115.233 31.896C115.737 31.224 115.989 30.372 115.989 29.34V27.432L110.769 28.512C109.593 28.752 108.717 29.088 108.141 29.52C107.565 29.952 107.277 30.552 107.277 31.32ZM137.044 18V20.484H130.492V31.032C130.492 31.92 130.744 32.58 131.248 33.012C131.752 33.444 132.4 33.66 133.192 33.66C133.888 33.66 134.488 33.54 134.992 33.3C135.496 33.06 135.952 32.736 136.36 32.328L137.368 34.74C136.816 35.244 136.156 35.64 135.388 35.928C134.644 36.216 133.78 36.36 132.796 36.36C131.884 36.36 131.032 36.204 130.24 35.892C129.448 35.556 128.812 35.04 128.332 34.344C127.876 33.624 127.636 32.688 127.612 31.536V20.484H124.012V18H127.612V13.68L130.492 12.888V18H137.044ZM143.846 14.544C143.198 14.544 142.67 14.352 142.262 13.968C141.878 13.56 141.686 13.032 141.686 12.384C141.686 11.736 141.878 11.22 142.262 10.836C142.67 10.428 143.198 10.224 143.846 10.224C144.494 10.224 145.01 10.428 145.394 10.836C145.802 11.22 146.006 11.736 146.006 12.384C146.006 13.032 145.802 13.56 145.394 13.968C145.01 14.352 144.494 14.544 143.846 14.544ZM145.286 18V36H142.406V18H145.286ZM163.345 18V20.484H157.333V36H154.453V20.484H150.853V18H154.453V14.976C154.453 13.368 154.945 12.06 155.929 11.052C156.913 10.044 158.389 9.54 160.357 9.54C160.981 9.54 161.569 9.612 162.121 9.756C162.673 9.9 163.105 10.104 163.417 10.368L162.661 12.708C162.085 12.348 161.401 12.168 160.609 12.168C159.577 12.168 158.773 12.42 158.197 12.924C157.621 13.404 157.333 14.184 157.333 15.264V18H163.345ZM183.058 18L174.598 39.024C173.902 40.776 173.11 42 172.222 42.696C171.358 43.392 170.29 43.74 169.018 43.74C168.202 43.74 167.446 43.62 166.75 43.38C166.078 43.164 165.478 42.864 164.95 42.48L165.742 39.96C166.222 40.392 166.726 40.704 167.254 40.896C167.806 41.112 168.346 41.22 168.874 41.22C169.498 41.22 170.086 41.028 170.638 40.644C171.19 40.26 171.694 39.48 172.15 38.304L173.086 35.964L171.286 31.68L165.562 18H168.838L173.338 29.736L174.454 32.94L175.75 29.376L179.962 18H183.058Z" fill="#892C6E"/>
</g>
<defs>
<linearGradient id="paint0_linear" x1="24.0146" y1="3.05145" x2="24.0146" y2="44.9035" gradientUnits="userSpaceOnUse">
<stop stop-color="#892C6E"/>
<stop offset="1" stop-color="#C33364"/>
</linearGradient>
<linearGradient id="paint1_linear" x1="24.0146" y1="0" x2="24.0146" y2="48" gradientUnits="userSpaceOnUse">
<stop stop-color="#892C6E"/>
<stop offset="1" stop-color="#C33364"/>
</linearGradient>
<clipPath id="clip0">
<rect width="205.71" height="48" fill="white"/>
</clipPath>
</defs>
</svg>
